<?xml version="1.0" ?><svg id="Слой_6" style="enable-background:new 0 0 192 192;" version="1.1" viewBox="0 0 192 192" xml:space="preserve" xmlns="http://www.w3.org/2000/svg" xmlns:xlink="http://www.w3.org/1999/xlink"><style type="text/css">
	.st0{fill-rule:evenodd;clip-rule:evenodd;fill:#FFCF48;}
	.st1{fill-rule:evenodd;clip-rule:evenodd;fill:#FFBC33;}
</style><g><path class="st0" d="M111.2,176.9c-1,0-2,0-3-0.1c-34.3-1.5-61.6-29.7-62.1-64c-0.3-17.6,6.4-34.2,18.7-46.7   c12.3-12.5,28.8-19.4,46.4-19.4c1.5,0,3,0.1,4.6,0.2c1.3,0.1,2.4,1,2.7,2.3c0.3,1.3-0.2,2.6-1.3,3.3C103.7,61,95.4,76.8,95.4,93.8   c0,26.2,19.4,47.6,43.2,47.6c11.4,0,22.2-4.9,30.3-13.7c0.5-0.6,1.3-0.9,2-0.9c0.9,0,1.7,0.4,2.2,1.1c0.5,0.7,0.7,1.6,0.4,2.4   C165.4,157.8,139.8,176.9,111.2,176.9z"/><path d="M111.2,49c1.5,0,3,0.1,4.4,0.2c0.8,0.1,1,1,0.4,1.4c-13.6,8.6-22.8,24.7-22.8,43.2c0,27.5,20.3,49.8,45.4,49.8   c12.5,0,23.8-5.5,32-14.4c0.1-0.1,0.2-0.2,0.4-0.2c0.3,0,0.6,0.3,0.5,0.7c-7.7,26-31.8,44.9-60.2,44.9c-1,0-1.9,0-2.9-0.1   c-33-1.5-59.4-28.8-59.9-61.8C47.8,77.6,76.1,49,111.2,49 M111.2,44.5c-18.2,0-35.2,7.1-48,20.1c-12.8,12.9-19.6,30.1-19.4,48.3   c0.3,17.1,7,33.4,19,45.8c12,12.4,28.1,19.7,45.2,20.4c1,0,2.1,0.1,3.1,0.1c14.8,0,28.9-4.7,40.6-13.6   c11.4-8.6,19.9-20.9,23.9-34.5c0.5-1.5,0.2-3.2-0.8-4.4c-0.9-1.3-2.5-2-4-2c-1.4,0-2.7,0.6-3.7,1.6c-7.7,8.4-17.9,13-28.7,13   c-22.6,0-40.9-20.3-40.9-45.3c0-16.3,7.9-31.4,20.7-39.4c1.9-1.2,2.9-3.5,2.3-5.8c-0.6-2.2-2.5-3.8-4.7-4   C114.3,44.6,112.7,44.5,111.2,44.5L111.2,44.5z"/></g><g><g><path class="st1" d="M58.3,112.8c-0.5-33.3,25-60.8,57.5-63.5c-0.1,0-0.2-0.1-0.3-0.1c-1.5-0.1-2.9-0.2-4.4-0.2    c-35,0-63.3,28.6-62.8,63.8c0.5,33,26.9,60.3,59.9,61.8c2.7,0.1,5.4,0.1,8-0.1C84.2,172,58.8,145.1,58.3,112.8z"/></g></g><g><path class="st1" d="M58.3,48.4c-0.9,0-2.3-0.4-2.3-3c0-7.4-6-13.4-13.4-13.4c-0.4,0-0.6,0-0.8,0c-1.5-0.2-2.2-1.3-2.2-2.3   c0-0.7,0.3-2.3,3-2.3c7.4,0,13.4-6,13.4-13.4c0-2.7,1.6-3,2.3-3c0.7,0,2.3,0.3,2.3,3c0,7.4,6,13.4,13.4,13.4c2.7,0,3,1.6,3,2.3   c0,1-0.7,2.1-2.2,2.3c-0.2,0-0.5,0-0.8,0c-7.4,0-13.4,6-13.4,13.4c0,0.4,0,0.7,0,0.8C60.4,47.7,59.3,48.4,58.3,48.4   C58.3,48.4,58.3,48.4,58.3,48.4z"/><path d="M58.3,13.1c0,0,0.1,0.3,0.1,0.8c0,8.7,7,15.7,15.7,15.7c1,0,1.1,0.2,0,0.2c-8.7,0-15.7,7-15.7,15.7c0,0.5,0,0.8-0.1,0.8   c0,0-0.1-0.3-0.1-0.8c0-8.7-7-15.7-15.7-15.7c-1,0-1-0.2,0-0.2c8.7,0,15.7-7,15.7-15.7C58.2,13.4,58.2,13.1,58.3,13.1 M58.3,8.6   c-0.2,0-4.6,0.1-4.6,5.3c0,6.2-5,11.2-11.2,11.2c-5.2,0-5.3,4.4-5.3,4.6c0,2,1.4,4.2,4.2,4.5c0.3,0,0.7,0,1.1,0   c6.2,0,11.2,5,11.2,11.2c0,5.2,4.4,5.3,4.6,5.3c0.2,0,4.6-0.1,4.6-5.3c0-6.2,5-11.2,11.2-11.2c5.2,0,5.3-4.4,5.3-4.6   c0-0.2-0.1-4.6-5.3-4.6c-6.2,0-11.2-5-11.2-11.2C62.9,8.7,58.5,8.6,58.3,8.6L58.3,8.6z"/></g><g><path class="st1" d="M33.1,76.9c-0.4,0-2.3-0.1-2.3-2.8c0-4.7-3.8-8.5-8.5-8.5c-0.3,0-0.5,0-0.6,0c-1.5-0.2-2.1-1.3-2.1-2.3   c0-0.4,0.1-2.3,2.8-2.3c4.7,0,8.5-3.8,8.5-8.5c0-2.6,1.9-2.8,2.3-2.8c0.4,0,2.3,0.1,2.3,2.8c0,4.7,3.8,8.5,8.5,8.5   c2.7,0,2.8,1.9,2.8,2.3s-0.1,2.3-2.8,2.3c-4.7,0-8.5,3.8-8.5,8.5c0,0.3,0,0.5,0,0.6C35.2,76.2,34.1,76.9,33.1,76.9   C33.1,76.9,33.1,76.9,33.1,76.9z"/><path d="M33.1,51.9c0,0,0.1,0.2,0.1,0.5c0,5.9,4.8,10.8,10.8,10.8c0.7,0,0.7,0.1,0,0.1c-5.9,0-10.8,4.8-10.8,10.8   c0,0.4,0,0.5-0.1,0.5c0,0-0.1-0.2-0.1-0.5c0-5.9-4.8-10.8-10.8-10.8c-0.7,0-0.7-0.1,0-0.1c5.9,0,10.8-4.8,10.8-10.8   C33.1,52.1,33.1,51.9,33.1,51.9 M33.1,47.4c-1.6,0-4.6,1.1-4.6,5c0,3.5-2.8,6.3-6.3,6.3c-4,0-5,3-5,4.6c0,1.6,1.1,4.6,5,4.6   c3.5,0,6.3,2.8,6.3,6.3c0,4,3,5,4.6,5c1.6,0,4.6-1.1,4.6-5c0-3.5,2.8-6.3,6.3-6.3c4,0,5-3,5-4.6c0-2-1.4-4.2-4.2-4.5   c-0.3,0-0.6,0-0.9,0c-3.5,0-6.3-2.8-6.3-6.3C37.7,48.5,34.7,47.4,33.1,47.4L33.1,47.4z"/></g></svg>